<?xml version="1.0" encoding="iso-8859-1"?>
<!-- Generator: Adobe Illustrator 19.0.0, SVG Export Plug-In . SVG Version: 6.00 Build 0)  -->
<svg version="1.1" id="Capa_1" xmlns="http://www.w3.org/2000/svg" xmlns:xlink="http://www.w3.org/1999/xlink" x="0px" y="0px"
	 viewBox="0 0 512 512" style="enable-background:new 0 0 512 512;" xml:space="preserve">
<g transform="matrix(1.25 0 0 -1.25 0 45)">
	<path style="fill:#F7DECE;" d="M119.467-31.558v-125.873c0-56.548,45.841-102.388,102.4-102.388s102.4,45.841,102.4,102.388
		v122.323L119.467-31.558z"/>
	<path style="fill:#C1694F;" d="M176.356-214.311h45.511h45.511c0,0-11.378-22.756-45.511-22.756S176.356-214.311,176.356-214.311"
		/>
	<g>
		<path style="fill:#662113;" d="M176.356-146.044c-6.28,0-11.378,5.097-11.378,11.378v11.378c0,6.28,5.097,11.378,11.378,11.378
			s11.378-5.097,11.378-11.378v-11.378C187.733-140.947,182.636-146.044,176.356-146.044"/>
		<path style="fill:#662113;" d="M267.378-146.044c-6.28,0-11.378,5.097-11.378,11.378v11.378c0,6.28,5.097,11.378,11.378,11.378
			c6.28,0,11.378-5.097,11.378-11.378v-11.378C278.756-140.947,273.658-146.044,267.378-146.044"/>
	</g>
	<path style="fill:#C1694F;" d="M233.244-185.867h-22.756c-3.141,0-5.689,2.548-5.689,5.689c0,3.141,2.548,5.689,5.689,5.689h22.756
		c3.141,0,5.689-2.548,5.689-5.689C238.933-183.318,236.385-185.867,233.244-185.867"/>
	<g>
		<path style="fill:#F7DECE;" d="M140.484-120.049c0-17.977-9.114-32.552-20.344-32.552c-11.241,0-20.344,14.575-20.344,32.552
			s9.102,32.552,20.344,32.552C131.37-87.497,140.484-102.072,140.484-120.049"/>
		<path style="fill:#F7DECE;" d="M343.941-120.049c0-17.977-9.102-32.552-20.344-32.552s-20.344,14.575-20.344,32.552
			s9.102,32.552,20.344,32.552S343.941-102.072,343.941-120.049"/>
	</g>
	<path style="fill:#292F33;" d="M221.867,26.641c-79.86,0-115.359-53.293-115.359-97.713c0-44.408,15.281-56.73,17.749-44.408
		c8.875,44.408,35.487,58.049,35.487,58.049c53.248-44.419,44.373-8.886,44.373-8.886c53.248-53.293,26.624,0,26.624,0
		c17.749-17.772,70.986-17.772,70.986-17.772s8.875-13.631,17.749-31.391s17.749,0,17.749,44.408
		C337.226-26.653,292.852,26.641,221.867,26.641"/>
	<path style="fill:#F7DECE;" d="M158.395,2.601c-6.725,4.426-15.781,2.548-20.207-4.175l-7.339-11.173v25.987
		c0,12.572-10.195,22.756-22.756,22.756H62.582c-12.572,0-22.756-10.183-22.756-22.756v-91.022c0,0,0-11.378,11.378-11.378h68.267
		l11.378,11.378v11.867l31.721,48.31C167.007-10.871,165.13-1.825,158.395,2.601"/>
	<g>
		<path style="fill:#E0AA94;" d="M73.956-20.889H62.578V36h11.378V-20.889z"/>
		<path style="fill:#E0AA94;" d="M108.089-20.889H96.711V36h11.378V-20.889z"/>
	</g>
	<path style="fill:#4289C1;" d="M324.267-271.2H130.844h-11.378l11.378,193.422H39.822V-271.2c0,0,0-102.4,91.022-102.4h238.933
		v56.889C369.778-291.578,349.4-271.2,324.267-271.2"/>
	<path style="fill:#2A6797;" d="M324.267-373.6h-11.378v45.511h11.378V-373.6z"/>
	<path style="fill:#F7DECE;" d="M187.733-237.067v-45.511c0-18.853,15.281-34.133,34.133-34.133S256-301.431,256-282.578v45.511
		H187.733z"/>
</g>
<g>
</g>
<g>
</g>
<g>
</g>
<g>
</g>
<g>
</g>
<g>
</g>
<g>
</g>
<g>
</g>
<g>
</g>
<g>
</g>
<g>
</g>
<g>
</g>
<g>
</g>
<g>
</g>
<g>
</g>
</svg>
